<svg width="21" height="20" viewBox="0 0 21 20" fill="none" xmlns="http://www.w3.org/2000/svg">
<g id="&#229;&#143;&#150;&#230;&#182;&#136;">
<path id="Vector" d="M16.0188 3.37305C16.2312 3.37317 16.431 3.45577 16.5813 3.60645V3.60742C16.7311 3.75691 16.8136 3.95565 16.8137 4.16797C16.8138 4.38102 16.731 4.58083 16.5803 4.73145L11.3831 9.92969L11.3127 10L16.5803 15.2676C16.8709 15.5582 16.8896 16.0207 16.635 16.333L16.5803 16.3936C16.4308 16.5434 16.2319 16.6258 16.0188 16.626C15.8059 16.626 15.6058 16.543 15.4553 16.3926L10.1877 11.125L10.1174 11.1953L4.91919 16.3926C4.76874 16.543 4.56922 16.626 4.35669 16.626C4.14418 16.626 3.94463 16.543 3.79419 16.3926C3.64383 16.2421 3.56079 16.0425 3.56079 15.8301C3.56088 15.6177 3.64378 15.418 3.79419 15.2676L8.99243 10.0703L9.06274 10L3.79419 4.73145C3.64361 4.58085 3.56068 4.38101 3.56079 4.16797C3.56093 3.95558 3.64386 3.75637 3.79419 3.60645C3.94463 3.456 4.14419 3.37305 4.35669 3.37305C4.5692 3.37305 4.76872 3.45599 4.91919 3.60645L10.1174 8.80371L10.1877 8.87402L10.259 8.80371L15.4553 3.60645C15.6057 3.45611 15.8055 3.37316 16.0188 3.37305Z" fill="#EEEEEE" stroke="#EEEEEE" stroke-width="0.2"/>
</g>
</svg>
