<svg xmlns="http://www.w3.org/2000/svg" width="24" height="24" viewBox="0 0 24 24" fill="none">
  <defs>
    <linearGradient id="locationGradient1" x1="0%" y1="0%" x2="0%" y2="100%">
      <stop offset="0%" stop-color="#FF8A65"/>
      <stop offset="100%" stop-color="#FF7043"/>
    </linearGradient>
    <linearGradient id="locationGradient2" x1="0%" y1="0%" x2="0%" y2="100%">
      <stop offset="0%" stop-color="#FFCCBC"/>
      <stop offset="100%" stop-color="#FFAB91"/>
    </linearGradient>
  </defs>
  <path d="M12 2C8.13 2 5 5.13 5 9c0 5.25 7 13 7 13s7-7.75 7-13c0-3.87-3.13-7-7-7z" fill="url(#locationGradient1)" opacity="0.15"/>
  <path d="M12 2C8.13 2 5 5.13 5 9c0 5.25 7 13 7 13s7-7.75 7-13c0-3.87-3.13-7-7-7z" stroke="#E64A19" stroke-width="2" stroke-linecap="round" stroke-linejoin="round"/>
  <circle cx="12" cy="9" r="2.5" fill="url(#locationGradient2)"/>
</svg>
