<svg xmlns="http://www.w3.org/2000/svg" width="32" height="32" viewBox="0 0 32 32" fill="none">
  <defs>
    <linearGradient id="plantGradient1" x1="0%" y1="0%" x2="100%" y2="100%">
      <stop offset="0%" stop-color="#81C784"/>
      <stop offset="100%" stop-color="#4CAF50"/>
    </linearGradient>
    <linearGradient id="plantGradient2" x1="0%" y1="0%" x2="100%" y2="100%">
      <stop offset="0%" stop-color="#A5D6A7"/>
      <stop offset="100%" stop-color="#66BB6A"/>
    </linearGradient>
  </defs>
  <path d="M16 4C16 4 10 10 10 15a6 6 0 0 0 12 0c0-5-6-11-6-11z" fill="url(#plantGradient1)" stroke="#388E3C" stroke-width="2" stroke-linecap="round" stroke-linejoin="round"/>
  <path d="M16 15v7" stroke="#388E3C" stroke-width="2" stroke-linecap="round"/>
  <path d="M12 22c0 0 2 3 4 3s4-3 4-3" stroke="#388E3C" stroke-width="2" stroke-linecap="round" stroke-linejoin="round"/>
  <path d="M13 11c1 1 2 2 2 3" stroke="url(#plantGradient2)" stroke-width="1.5" stroke-linecap="round"/>
  <path d="M19 9c-1 1.5-2 3-2 4" stroke="url(#plantGradient2)" stroke-width="1.5" stroke-linecap="round"/>
</svg>
