<svg xmlns="http://www.w3.org/2000/svg" width="32" height="32" viewBox="0 0 32 32" fill="none">
  <defs>
    <linearGradient id="refreshGradient1" x1="0%" y1="0%" x2="100%" y2="100%">
      <stop offset="0%" stop-color="#FF8A65"/>
      <stop offset="100%" stop-color="#FF7043"/>
    </linearGradient>
    <linearGradient id="refreshGradient2" x1="0%" y1="0%" x2="100%" y2="100%">
      <stop offset="0%" stop-color="#FF7043"/>
      <stop offset="100%" stop-color="#F4511E"/>
    </linearGradient>
  </defs>
  <path d="M8 16a8 8 0 0 1 13.9-5.4L24 8v6h-6l2.5-2.5A6 6 0 0 0 10 16c0 1.8.8 3.4 2 4.5" stroke="url(#refreshGradient1)" stroke-width="2.5" stroke-linecap="round" stroke-linejoin="round" fill="none"/>
  <path d="M24 16a8 8 0 0 1-13.9 5.4L8 24v-6h6l-2.5 2.5A6 6 0 0 0 22 16c0-1.8-.8-3.4-2-4.5" stroke="url(#refreshGradient2)" stroke-width="2.5" stroke-linecap="round" stroke-linejoin="round" fill="none"/>
  <path d="M22 6l2 2-2 2" stroke="url(#refreshGradient1)" stroke-width="2" stroke-linecap="round" stroke-linejoin="round"/>
  <path d="M10 26l-2-2 2-2" stroke="url(#refreshGradient2)" stroke-width="2" stroke-linecap="round" stroke-linejoin="round"/>
</svg>
